<?xml version="1.0" standalone="no"?><!DOCTYPE svg PUBLIC "-//W3C//DTD SVG 1.1//EN" "http://www.w3.org/Graphics/SVG/1.1/DTD/svg11.dtd"><svg t="1596534958424" class="icon" viewBox="0 0 1024 1024" version="1.1" xmlns="http://www.w3.org/2000/svg" p-id="2076" xmlns:xlink="http://www.w3.org/1999/xlink" width="200" height="200"><defs><style type="text/css"></style></defs><path d="M578.72 523.04L930.56 171.2c17.76-17.76 17.76-47.04 0-64.8l-1.92-1.92c-17.76-17.76-47.04-17.76-64.8 0L512 456.8 160.16 104.48c-17.76-17.76-47.04-17.76-64.8 0l-1.92 1.92c-18.24 17.76-18.24 47.04 0 64.8l351.84 351.84L93.44 874.88c-17.76 17.76-17.76 47.04 0 64.8l1.92 1.92c17.76 17.76 47.04 17.76 64.8 0L512 589.76 863.84 941.6c17.76 17.76 47.04 17.76 64.8 0l1.92-1.92c17.76-17.76 17.76-47.04 0-64.8L578.72 523.04z" fill="" p-id="2077"></path></svg>