<?xml version="1.0" standalone="no"?><!DOCTYPE svg PUBLIC "-//W3C//DTD SVG 1.1//EN" "http://www.w3.org/Graphics/SVG/1.1/DTD/svg11.dtd"><svg t="1596503643302" class="icon" viewBox="0 0 1024 1024" version="1.1" xmlns="http://www.w3.org/2000/svg" p-id="2070" xmlns:xlink="http://www.w3.org/1999/xlink" width="200" height="200"><defs><style type="text/css"></style></defs><path d="M915.558 274.403c0 10.19-8.26 18.45-18.45 18.45H303.951c-10.19 0-18.45-8.26-18.45-18.45s8.26-18.45 18.45-18.45h593.156c10.19 0 18.451 8.26 18.451 18.45zM915.558 506.408c0 10.19-8.26 18.45-18.45 18.45H303.951c-10.19 0-18.45-8.26-18.45-18.45s8.26-18.45 18.45-18.45h593.156c10.19-0.001 18.451 8.26 18.451 18.45zM915.558 737.093c0 10.19-8.26 18.45-18.45 18.45H303.951c-10.19 0-18.45-8.26-18.45-18.45s8.26-18.45 18.45-18.45h593.156c10.19-0.001 18.451 8.26 18.451 18.45zM220.186 232.25V339s5.055 36.349-25.753 15.81l-80.308-53.539s-24.402-13.105 2.792-31.23c28.728-19.147 74.865-50.577 74.865-50.577s28.712-23.631 28.404 12.786zM220.494 505.512c0 9.695-7.859 17.554-17.554 17.554h-77.052c-9.695 0-17.554-7.859-17.554-17.554 0-9.695 7.859-17.554 17.554-17.554h77.052c9.695-0.001 17.554 7.859 17.554 17.554zM220.494 736.958c0 9.695-7.859 17.554-17.554 17.554h-77.052c-9.695 0-17.554-7.859-17.554-17.554 0-9.695 7.859-17.554 17.554-17.554h77.052c9.695-0.001 17.554 7.859 17.554 17.554z" p-id="2071"></path></svg>