<?xml version="1.0" standalone="no"?><!DOCTYPE svg PUBLIC "-//W3C//DTD SVG 1.1//EN" "http://www.w3.org/Graphics/SVG/1.1/DTD/svg11.dtd"><svg t="1596713863467" class="icon" viewBox="0 0 1024 1024" version="1.1" xmlns="http://www.w3.org/2000/svg" p-id="7688" xmlns:xlink="http://www.w3.org/1999/xlink" width="200" height="200"><defs><style type="text/css"></style></defs><path d="M406.4 83.2l-294.4 294.4c-16 12.8-16 38.4 0 54.4C160 480 236.8 480 284.8 432l25.6-25.6 105.6 160c-67.2 96-60.8 227.2 25.6 310.4 6.4 6.4 16 6.4 22.4 0l166.4-166.4s0 3.2 3.2 3.2L979.2 963.2c6.4 6.4 19.2 6.4 25.6-3.2 3.2-3.2 6.4-9.6 6.4-12.8 0-3.2 0-9.6-3.2-12.8l-243.2-348.8s-3.2 0-3.2-3.2l156.8-156.8c6.4-6.4 6.4-16 0-22.4-86.4-86.4-224-92.8-316.8-19.2l-153.6-112 19.2-19.2c48-48 48-124.8 0-169.6-19.2-16-44.8-16-60.8 0zM905.6 860.8l-240-182.4 60.8-60.8 179.2 243.2z" p-id="7689" fill="#bfbfbf"></path></svg>