<?xml version="1.0" standalone="no"?><!DOCTYPE svg PUBLIC "-//W3C//DTD SVG 1.1//EN" "http://www.w3.org/Graphics/SVG/1.1/DTD/svg11.dtd"><svg t="1597649485997" class="icon" viewBox="0 0 1024 1024" version="1.1" xmlns="http://www.w3.org/2000/svg" p-id="2231" xmlns:xlink="http://www.w3.org/1999/xlink" width="200" height="200"><defs><style type="text/css"></style></defs><path d="M247.37124246 359.73951667a271.53211652 269.61451667 0 1 0 543.06423221-1e-8 271.53211652 269.61451667 0 1 0-543.06423221 0Z" fill="#ffffff" p-id="2232"></path><path d="M228.19524558 456.0030209a58.67855091 36.81791373 90 1 0 73.63582827 0 58.67855091 36.81791373 90 1 0-73.63582827 0Z" fill="#ffffff" p-id="2233"></path><path d="M228.57876538 875.19031296c5.75279873 38.35199377 73.25230847 65.58190906 150.72333645 57.14447085s135.38253846-47.55647242 129.62973889-87.4425454S435.29601245 780.46088877 358.5920249 787.74776755s-136.14957807 47.55647242-130.01325952 87.44254541z" fill="#ffffff" p-id="2234"></path><path d="M750.54940167 456.0030209a58.67855091 36.81791373 90 1 0 73.63582829 0 58.67855091 36.81791373 90 1 0-73.63582829 0Z" fill="#ffffff" p-id="2235"></path><path d="M655.61450046 929.97586398a136.91661768 72.86878784 7.27 1 0 18.44239663-144.56596866 136.91661768 72.86878784 7.27 1 0-18.44239663 144.56596866Z" fill="#ffffff" p-id="2236"></path><path d="M253.12404202 658.11802783a261.94411807 218.22284453 0 1 0 523.88823532 0 261.94411807 218.22284453 0 1 0-523.88823532 0Z" fill="#ffffff" p-id="2237"></path><path d="M296.07827512 614.78027493c-38.35199377 76.70398755-98.94814371 125.41101938-115.05598133 115.05598133-23.7782362-12.65615771-29.53103494-90.12718569 9.20447782-166.83117242S288.79139634 437.59406363 320.24003113 452.55134183s14.19023777 85.52494639-24.16175601 162.2289331zM738.27676377 624.36827338c35.2838345 69.80062857 85.90846619 123.87694015 107.76910254 119.27470083s29.91455558-85.52494639-1.91759986-163.37949334-92.04478474-136.91661768-121.5758205-121.95934031-23.01119659 89.36014526 15.72431782 166.06413281z" fill="#ffffff" p-id="2238"></path></svg>