<?xml version="1.0" standalone="no"?><!DOCTYPE svg PUBLIC "-//W3C//DTD SVG 1.1//EN" "http://www.w3.org/Graphics/SVG/1.1/DTD/svg11.dtd"><svg t="1597658372193" class="icon" viewBox="0 0 1024 1024" version="1.1" xmlns="http://www.w3.org/2000/svg" p-id="17981" xmlns:xlink="http://www.w3.org/1999/xlink" width="200" height="200"><defs><style type="text/css"></style></defs><path d="M231.8336 744.0384h554.3936c80.4864 0 145.8176-32.1536 145.8176-71.68V175.5136c0-34.2016-56.32-61.8496-125.7472-61.8496H371.9168l-140.0832 630.3744z" fill="#9EF6AF" p-id="17982"></path><path d="M459.5712 253.7472H512v350.208h-52.4288zM301.8752 463.872H354.304v140.0832h-52.4288zM652.0832 323.7888H704.512v280.1664h-52.4288zM719.0528 936.5504H304.9472c-1.6384 0-3.072-1.4336-3.072-3.072v-46.2848c0-1.6384 1.4336-3.072 3.072-3.072h414.1056c1.6384 0 3.072 1.4336 3.072 3.072v46.2848c0 1.6384-1.4336 3.072-3.072 3.072z" fill="#22BC3F" p-id="17983"></path><path d="M862.208 770.2528H161.792c-53.0432 0-96.256-43.2128-96.256-96.256V183.7056c0-53.0432 43.2128-96.256 96.256-96.256h700.416c53.0432 0 96.256 43.2128 96.256 96.256v490.2912c0 53.0432-43.2128 96.256-96.256 96.256zM161.792 139.8784c-24.1664 0-43.8272 19.6608-43.8272 43.8272v490.2912c0 24.1664 19.6608 43.8272 43.8272 43.8272h700.416c24.1664 0 43.8272-19.6608 43.8272-43.8272V183.7056c0-24.1664-19.6608-43.8272-43.8272-43.8272H161.792z" fill="#47FF6A" p-id="17984"></path><path d="M862.208 770.2528H161.792c-53.0432 0-96.256-43.2128-96.256-96.256v-70.0416c0-14.5408 11.6736-26.2144 26.2144-26.2144s26.2144 11.6736 26.2144 26.2144v70.0416c0 24.1664 19.6608 43.8272 43.8272 43.8272h700.416c24.1664 0 43.8272-19.6608 43.8272-43.8272V183.7056c0-24.1664-19.6608-43.8272-43.8272-43.8272H161.792c-24.1664 0-43.8272 19.6608-43.8272 43.8272v280.1664c0 14.5408-11.6736 26.2144-26.2144 26.2144S65.536 478.4128 65.536 463.872V183.7056c0-53.0432 43.2128-96.256 96.256-96.256h700.416c53.0432 0 96.256 43.2128 96.256 96.256v490.2912c0 53.0432-43.2128 96.256-96.256 96.256z" fill="#22BC3F" p-id="17985"></path></svg>