<?xml version="1.0" standalone="no"?><!DOCTYPE svg PUBLIC "-//W3C//DTD SVG 1.1//EN" "http://www.w3.org/Graphics/SVG/1.1/DTD/svg11.dtd"><svg t="1597643358787" class="icon" viewBox="0 0 1024 1024" version="1.1" xmlns="http://www.w3.org/2000/svg" p-id="6182" xmlns:xlink="http://www.w3.org/1999/xlink" width="200" height="200"><defs><style type="text/css"></style></defs><path d="M296.383842 426.294809l176.915822 117.943881c56.514777 0 73.510162-4.095274 108.319988-18.838258 0 0 237.321109-124.291556 304.278833-181.420624 21.500187-18.428731 38.290809-40.952737 33.990772-71.872052L493.161741 15.948388l-196.777899 410.346421z" fill="#9EF6AF" p-id="6183"></path><path d="M290.650459 644.368132l194.525499 131.867811c57.333831 0 98.491332 3.276219 98.491331-30.714552l303.459778-197.596954c0-29.281207 49.143284-72.486344-0.409527-72.486344l-365.503174-162.991892-230.563907 331.921931z" fill="#9EF6AF" p-id="6184"></path><path d="M282.869439 862.441454l199.439827 135.144031c58.767177 0 100.948496 3.480983 100.948496-31.533607l311.036034-202.511283c0-30.100261 50.371866-74.329217-0.409527-74.329217l-374.512776-167.087165-236.502054 340.317241z" fill="#9EF6AF" p-id="6185"></path><path d="M506.471381 590.720047c-20.066841 0-39.928918-5.528619-57.333832-16.790622L114.758455 358.51803c-18.633495-12.081057-29.690734-32.557426-29.690734-54.876667 0-23.752587 11.876294-45.662301 32.147898-58.767177L463.880534 18.610316c36.038408-23.547824 82.110237-24.571642 117.329591-2.661928l335.198149 207.835138c18.838259 11.67153 30.305025 31.943135 30.714553 54.46714 0.409527 23.752587-11.262003 45.867065-31.12408 59.381468L569.333831 571.062733c-19.043023 13.104876-41.1575 19.657314-62.86245 19.657314z m-28.87168-61.019578c18.428731 11.876294 42.79561 11.057239 62.24816-2.047637l346.460152-233.635362c5.119092-3.480983 7.985784-8.804838 7.985783-14.538222 0-3.276219-1.023818-7.78102-5.733383-10.647711L553.362264 60.586871c-17.81444-11.057239-41.771791-10.238184-60.61005 2.047637L145.882535 288.898378c-5.119092 3.276219-8.190547 8.804838-8.190548 14.538221 0 3.276219 1.023818 7.78102 5.52862 10.647712l334.379094 215.616158z" fill="#47FF6A" p-id="6186"></path><path d="M506.471381 590.720047c-20.066841 0-39.928918-5.528619-57.333832-16.790622L114.758455 358.51803c-18.633495-12.081057-29.690734-32.557426-29.690734-54.876667 0-23.752587 11.876294-45.662301 32.147898-58.767177l72.895871-47.505175c12.081057-7.985784 28.462152-4.504801 36.447936 7.78102 7.985784 12.285821 4.504801 28.462152-7.78102 36.447936L145.882535 288.898378c-5.119092 3.276219-8.190547 8.804838-8.190548 14.538221 0 3.276219 1.023818 7.78102 5.52862 10.647712l334.379094 215.411394c18.428731 11.876294 42.79561 11.057239 62.24816-2.047637l346.460152-233.635362c5.119092-3.480983 7.985784-8.804838 7.985783-14.538221 0-3.276219-1.023818-7.78102-5.733383-10.647712L553.362264 60.586871c-17.81444-11.057239-41.771791-10.238184-60.61005 2.047637l-160.1252 104.429478c-12.285821 7.985784-28.462152 4.504801-36.447936-7.78102-7.985784-12.285821-4.504801-28.462152 7.78102-36.447935l160.1252-104.429479c36.038408-23.547824 82.110237-24.571642 117.329591-2.661928l335.198149 207.835139c18.838259 11.67153 30.305025 31.943135 30.714552 54.467139 0.409527 23.752587-11.262003 45.867065-31.12408 59.381469L569.333831 571.062733c-19.043023 13.104876-41.1575 19.657314-62.86245 19.657314z" fill="#22BC3F" p-id="6187"></path><path d="M513.638109 814.731516c-20.681132 0-41.362264-5.938147-59.381468-17.814441L115.372746 574.748479c-19.043023-12.490585-30.305025-33.581244-30.305025-56.514776 0.204764-23.138296 11.876294-44.638483 31.533607-57.129068 12.285821-7.78102 28.462152-4.300037 36.447936 7.985784 7.78102 12.285821 4.300037 28.462152-7.985784 36.447935-6.552438 4.095274-7.166729 10.442948-7.166729 13.104876 0 2.866692 0.819055 8.395311 6.552438 12.285821L483.333084 753.302411c18.838259 12.285821 43.205137 12.081057 62.24816-0.614291l341.955351-226.878161c6.552438-4.300037 7.166729-10.647712 6.961965-13.104876 0-2.866692-1.023818-8.395311-6.757201-12.081057-12.285821-7.78102-15.971567-23.957351-8.190548-36.447936 7.78102-12.285821 24.162115-15.971567 36.447936-8.190547 19.247786 12.285821 30.919316 33.171717 31.12408 56.105249 0.204764 23.138296-11.262003 44.843247-30.714553 57.743359L574.452923 796.712312c-18.633495 11.876294-39.724155 18.019204-60.814814 18.019204z" fill="#22BC3F" p-id="6188"></path><path d="M510.157127 1024c-20.476368 0-40.747973-5.733383-58.35765-17.200149l-336.631495-219.097141c-18.838259-12.285821-30.100261-33.171717-30.100261-55.695722 0-23.547824 11.876294-45.04801 31.738371-57.948122 12.285821-7.985784 28.462152-4.300037 36.447935 7.78102 7.985784 12.285821 4.300037 28.462152-7.78102 36.447935-6.961965 4.504801-7.78102 11.057239-7.78102 13.719167 0 2.866692 0.819055 7.985784 6.142911 11.466766l336.631495 219.097141c18.633495 12.081057 43.000373 11.466766 62.248159-1.228582L886.71754 731.187933c6.961965-4.504801 7.576256-11.262003 7.371493-13.92393 0-2.866692-0.819055-7.985784-6.142911-11.262003-12.285821-7.78102-16.176331-23.957351-8.395311-36.243172 7.78102-12.285821 23.957351-16.176331 36.243172-8.395311 19.043023 11.876294 30.714552 32.557426 30.919316 55.286195 0.409527 23.547824-11.262003 45.252774-30.919316 58.562413l-344.002988 230.15438c-18.633495 12.285821-40.133682 18.633495-61.633868 18.633495z" fill="#22BC3F" p-id="6189"></path></svg>