<?xml version="1.0" standalone="no"?><!DOCTYPE svg PUBLIC "-//W3C//DTD SVG 1.1//EN" "http://www.w3.org/Graphics/SVG/1.1/DTD/svg11.dtd"><svg t="1597153855082" class="icon" viewBox="0 0 1252 1024" version="1.1" xmlns="http://www.w3.org/2000/svg" p-id="4901" xmlns:xlink="http://www.w3.org/1999/xlink" width="244.53125" height="200"><defs><style type="text/css"></style></defs><path d="M939.723093 554.609778c-0.028444-27.904 19.797333-48.184889 47.274667-48.355556 26.368-0.142222 48.412444 20.764444 47.786667 45.368889-0.711111 29.212444-21.674667 50.915556-48.753778 50.375111-24.519111-0.455111-46.307556-22.755556-46.307556-47.388444z" fill="#7F8383" p-id="4902"></path><path d="M148.512427 785.777778a7.139556 7.139556 0 0 0-1.649778-4.380445 4.380444 4.380444 0 0 0-1.137778-4.437333c5.518222-24.689778 9.528889-49.863111 16.924445-73.984 7.936-25.827556 0.938667-42.666667-21.105778-58.112-50.631111-35.441778-87.722667-83.342222-111.928889-139.662222-46.648889-108.373333-39.224889-212.679111 29.781333-310.784C168.764871 38.912 324.185316-9.016889 504.835982 5.688889c118.584889 9.614222 220.728889 57.315556 302.108445 145.351111 50.232889 54.328889 81.379556 117.959111 87.239111 192.711111-22.016 0.170667-44.231111-1.422222-66.048 0.739556-96.142222 9.699556-183.864889 38.883556-252.245334 111.872-66.844444 71.310222-101.831111 152.263111-78.506666 251.534222 1.649778 7.111111 2.730667 14.506667 5.319111 21.276444 4.181333 10.951111-3.413333 14.108444-10.524445 18.005334l-9.813333 0.568889h-68.636444l-9.671111-0.910223c-33.166222-6.4-66.218667-13.425778-99.498667-18.915555-13.624889-2.275556-27.392 0.199111-39.082667 8.96a4.494222 4.494222 0 0 0-3.982222 1.479111c-6.826667-0.199111-11.832889 3.100444-15.900444 8.248889a5.091556 5.091556 0 0 0-3.982223 1.735111l-5.376 3.413333-4.551111 1.962667-4.494222 3.157333-0.256 0.227556a20.764444 20.764444 0 0 0-15.729778 9.187555 5.319111 5.319111 0 0 0-4.039111 1.877334l-4.835555 3.413333-5.12 2.332444-3.555556 2.844445-1.024 0.597333-5.688889 3.84-4.380444 2.048-4.295111 3.185778-0.398223 0.284444-19.569777 5.546667a5.888 5.888 0 0 0-4.152889-1.308444l-5.632-5.176889z" fill="#85DA46" p-id="4903"></path><path d="M492.178204 747.178667c7.111111-3.896889 14.705778-7.054222 10.524445-18.005334-2.588444-6.769778-3.669333-14.136889-5.347556-21.276444-23.267556-99.271111 11.690667-180.224 78.506667-251.534222 68.408889-72.988444 156.131556-102.172444 252.302222-111.872 21.788444-2.190222 44.003556-0.568889 66.019556-0.739556 125.127111 9.159111 231.480889 55.182222 302.961778 162.360889 75.633778 113.351111 59.676444 244.48-32.796445 342.755556-15.616 16.554667-31.004444 33.536-50.460444 46.279111-9.216 6.030222-13.767111 14.023111-9.045334 27.164444 6.883556 19.000889 10.496 39.224889 15.160889 58.993778 1.905778 8.021333 3.470222 16.896-4.096 22.755555-7.907556 6.058667-17.123556 4.636444-25.486222 0.170667-13.653333-7.310222-27.960889-13.880889-40.391111-22.954667-30.663111-22.414222-62.293333-24.177778-99.470222-16.896-128.142222 25.144889-245.873778-0.739556-349.923556-81.777777-40.533333-31.573333-72.647111-69.831111-92.074667-117.788445-3.413333-8.391111-11.320889-11.377778-16.355555-17.635555z m447.544889-192.568889c0 24.661333 21.788444 46.933333 46.307556 47.388444 27.079111 0.512 48.042667-21.162667 48.782222-50.346666 0.597333-24.632889-21.447111-45.539556-47.815111-45.397334-27.477333 0.170667-47.303111 20.451556-47.274667 48.355556z m-152.576-0.369778c0.142222-27.591111-19.911111-47.985778-47.160889-47.957333-26.225778 0.028444-46.193778 19.541333-46.734222 45.738666-0.597333 28.16 18.972444 49.436444 45.596445 49.578667 27.079111 0.142222 48.156444-20.508444 48.298666-47.36z" fill="#EDEFF0" p-id="4904"></path><path d="M787.147093 554.24c-0.142222 26.851556-21.219556 47.502222-48.298666 47.36-26.624-0.142222-46.193778-21.447111-45.596445-49.578667 0.568889-26.168889 20.48-45.710222 46.734222-45.738666 27.249778 0 47.303111 20.366222 47.160889 47.957333z" fill="#7F8383" p-id="4905"></path><path d="M515.275093 299.064889c0-27.904 19.797333-48.184889 47.274667-48.355556 26.368-0.142222 48.412444 20.764444 47.786667 45.368889-0.711111 29.212444-21.674667 50.887111-48.753778 50.375111-24.519111-0.455111-46.307556-22.755556-46.307556-47.388444z m-152.576-0.369778c-0.142222 26.823111-21.191111 47.502222-48.298666 47.331556-26.624-0.142222-46.193778-21.418667-45.596445-49.578667 0.568889-26.168889 20.508444-45.681778 46.734222-45.710222 27.249778-0.028444 47.303111 20.337778 47.160889 47.957333z" fill="#116F20" p-id="4906"></path></svg>