<?xml version="1.0" standalone="no"?><!DOCTYPE svg PUBLIC "-//W3C//DTD SVG 1.1//EN" "http://www.w3.org/Graphics/SVG/1.1/DTD/svg11.dtd"><svg t="1597643912793" class="icon" viewBox="0 0 1024 1024" version="1.1" xmlns="http://www.w3.org/2000/svg" p-id="6809" xmlns:xlink="http://www.w3.org/1999/xlink" width="200" height="200"><defs><style type="text/css"></style></defs><path d="M686.976 332.8c10.88 0 21.632 0.832 32.256 2.048-28.992-135.104-173.44-235.52-338.304-235.52-184.32 0-335.296 125.632-335.296 285.184 0 92.096 50.24 167.68 134.208 226.368l-33.536 100.864 117.184-58.752c41.984 8.32 75.648 16.832 117.44 16.832 10.56 0 20.992-0.512 31.36-1.28a249.664 249.664 0 0 1-10.368-70.336c0-146.496 125.76-265.344 285.056-265.344zM506.688 241.92c25.28 0 41.984 16.64 41.984 41.856 0 25.152-16.704 41.984-41.984 41.984-25.088 0-50.368-16.832-50.368-41.984 0-25.216 25.28-41.856 50.368-41.856zM272 325.76c-25.088 0-50.432-16.832-50.432-41.984 0-25.216 25.344-41.856 50.432-41.856 25.152 0 41.856 16.64 41.856 41.856 0 25.152-16.64 41.984-41.856 41.984z" fill="#ffffff" p-id="6810"></path><path d="M993.024 594.176c0-134.08-134.144-243.328-284.8-243.328-159.552 0-285.184 109.248-285.184 243.328 0 134.272 125.632 243.328 285.184 243.328 33.344 0 67.072-8.384 100.608-16.832l91.968 50.368-25.216-83.776c67.328-50.56 117.44-117.44 117.44-193.088zM615.68 552.32c-16.64 0-33.536-16.64-33.536-33.6 0-16.64 16.832-33.536 33.536-33.536 25.344 0 41.984 16.832 41.984 33.536 0 16.96-16.64 33.6-41.984 33.6z m184.448 0c-16.64 0-33.28-16.64-33.28-33.6 0-16.64 16.64-33.536 33.28-33.536 25.152 0 41.92 16.832 41.92 33.536 0 16.96-16.768 33.6-41.92 33.6z" fill="#ffffff" p-id="6811"></path></svg>