<?xml version="1.0" standalone="no"?><!DOCTYPE svg PUBLIC "-//W3C//DTD SVG 1.1//EN" "http://www.w3.org/Graphics/SVG/1.1/DTD/svg11.dtd"><svg t="1595094206278" class="icon" viewBox="0 0 1024 1024" version="1.1" xmlns="http://www.w3.org/2000/svg" p-id="3434" xmlns:xlink="http://www.w3.org/1999/xlink" width="200" height="200"><defs><style type="text/css"></style></defs><path d="M153.6 0h716.8a153.6 153.6 0 0 1 153.6 153.6v716.8a153.6 153.6 0 0 1-153.6 153.6H153.6a153.6 153.6 0 0 1-153.6-153.6V153.6a153.6 153.6 0 0 1 153.6-153.6z m496.128 230.4H307.2a25.6 25.6 0 0 0-25.6 25.6v512a25.6 25.6 0 0 0 25.6 25.6h435.2a25.6 25.6 0 0 0 25.6-25.6V345.6h-92.672a25.6 25.6 0 0 1-25.6-25.6V230.4z m25.6 11.776v77.824h78.592l-78.592-77.824zM371.2 665.6h281.6a12.8 12.8 0 0 1 0 25.6h-281.6a12.8 12.8 0 0 1 0-25.6z m0-307.2h153.6a12.8 12.8 0 0 1 0 25.6h-153.6a12.8 12.8 0 0 1 0-25.6z m0 102.4h153.6a12.8 12.8 0 0 1 0 25.6h-153.6a12.8 12.8 0 0 1 0-25.6z m0 102.4h281.6a12.8 12.8 0 0 1 0 25.6h-281.6a12.8 12.8 0 0 1 0-25.6z" fill="#7BCF8C" p-id="3435"></path></svg>